<svg version="1.1" id="Layer_1" xmlns="http://www.w3.org/2000/svg" xmlns:xlink="http://www.w3.org/1999/xlink" x="0px" y="0px"
	 width="100%" viewBox="0 0 225 185" enable-background="new 0 0 225 185" xml:space="preserve">
<path fill="#FEFEFE" opacity="1.000000" stroke="none" 
	d="
M140.000000,186.000000 
	C93.333336,186.000000 47.166672,186.000000 1.000006,186.000000 
	C1.000004,124.333344 1.000004,62.666679 1.000002,1.000015 
	C75.999992,1.000010 150.999985,1.000010 225.999969,1.000005 
	C225.999985,62.666653 225.999985,124.333305 226.000000,185.999969 
	C197.500000,186.000000 169.000000,186.000000 140.000000,186.000000 
M175.426117,10.143629 
	C174.939194,12.735559 174.452286,15.327490 173.952118,17.957355 
	C173.952118,17.957355 173.987961,17.941095 173.129822,17.890907 
	C171.423355,18.020733 169.716873,18.150557 167.312103,18.367781 
	C166.800232,23.053976 166.479187,27.915707 159.457367,26.098103 
	C159.156738,29.159431 158.917740,31.593201 158.368179,33.973228 
	C158.125015,34.034760 158.007721,34.190838 157.176483,34.709259 
	C150.663589,35.240158 150.663589,35.240158 151.008530,42.010456 
	C151.008530,42.010456 151.018082,41.943348 150.166824,42.186520 
	C142.925125,42.626904 142.925125,42.626904 142.171341,50.059357 
	C141.977127,50.194965 141.929230,50.370438 141.094208,50.721832 
	C109.034042,50.754173 76.973862,50.777554 44.913746,50.837620 
	C42.609653,50.841934 40.306057,51.114159 37.296528,51.364250 
	C36.804493,53.840031 36.312458,56.315811 35.000385,58.838955 
	C33.361385,58.967964 31.722387,59.096973 29.431421,59.104176 
	C29.212704,60.418987 28.993984,61.733795 28.635683,63.726891 
	C28.503532,64.638855 28.371380,65.550827 27.341410,66.397476 
	C19.828438,66.574997 19.813383,66.575539 20.089399,74.244690 
	C20.124392,75.216934 20.415691,76.179955 20.408308,78.044823 
	C20.345833,95.811363 20.283356,113.577896 19.253899,131.379288 
	C16.928759,131.441971 14.603945,131.539444 12.278420,131.561203 
	C2.910529,131.648865 4.251125,130.715866 4.155723,139.943558 
	C4.124783,142.936203 4.301207,145.938339 4.121360,148.920380 
	C3.852426,153.379578 3.752046,157.461838 10.190465,156.671448 
	C10.824575,156.593597 11.579302,157.498291 12.179648,158.766495 
	C12.263772,160.130615 12.347896,161.494720 12.343460,163.613358 
	C14.543223,163.957504 16.739094,164.566147 18.943443,164.598587 
	C27.168438,164.719620 27.169481,164.648743 28.991276,172.446533 
	C33.995564,172.446533 39.047028,172.446533 44.311016,172.446533 
	C44.460991,170.818939 44.751099,169.511612 44.665401,168.229431 
	C44.467754,165.272217 45.979149,164.589447 48.611164,164.600525 
	C64.935921,164.669266 81.262390,164.550186 97.584038,164.786926 
	C99.142738,164.809525 100.672173,166.849716 102.104630,168.689606 
	C102.164452,169.427872 102.224266,170.166153 102.233658,171.695892 
	C107.133606,171.963120 112.032936,172.247116 116.936096,172.427124 
	C117.105858,172.433380 117.313759,171.400818 117.703743,170.044434 
	C117.746101,168.373886 117.788460,166.703323 118.445534,164.964844 
	C118.966629,164.668808 119.487724,164.372757 120.832489,164.145615 
	C122.196815,164.036469 123.561150,163.927322 125.673622,163.732910 
	C125.934296,162.002075 126.391701,160.274719 126.422562,158.539795 
	C126.580475,149.663742 126.628410,140.785706 127.632797,131.798218 
	C130.715744,131.902283 134.572632,130.676376 134.342499,136.608658 
	C134.208405,138.551971 134.081299,140.489105 137.852936,139.889297 
	C141.978409,139.177780 142.794983,141.764893 142.738144,145.818909 
	C145.689850,149.680344 149.569489,147.381470 154.008209,147.531357 
	C157.115463,147.956512 158.607101,146.800156 158.323166,143.477234 
	C158.128662,141.200821 158.147842,138.882889 158.326279,136.603455 
	C158.579636,133.367050 157.653778,131.801132 154.005066,131.904251 
	C152.757492,131.939514 151.454422,130.010437 150.629593,128.611237 
	C150.472778,127.746140 150.315964,126.881035 150.143127,125.330994 
	C150.243683,124.887199 150.344238,124.443413 150.742004,124.081329 
	C150.971710,123.985840 151.060593,123.816368 151.925598,123.538261 
	C157.193222,124.428528 159.234573,122.136574 158.408966,116.986893 
	C158.358444,116.671753 158.479523,116.329094 158.814255,116.022552 
	C159.030472,115.911774 159.091965,115.744301 159.899261,115.385109 
	C164.838608,116.134377 167.456284,114.445259 167.045288,108.959160 
	C167.400375,108.410736 167.755447,107.862305 168.972397,107.231895 
	C174.082291,108.116394 175.628387,105.643272 175.378113,100.701744 
	C175.599930,100.163635 175.821747,99.625526 176.919083,99.004227 
	C181.696976,99.761566 184.036011,98.052040 183.089951,92.951881 
	C182.973160,92.322311 183.069473,91.653214 182.998520,91.000015 
	C182.998520,91.000015 182.999664,91.068565 183.836700,91.100288 
	C190.087799,91.823677 191.224335,87.980789 190.994064,82.994164 
	C190.994064,82.994164 190.994431,83.076637 191.888046,83.057236 
	C198.849030,82.952133 198.849030,82.952133 199.982010,75.979500 
	C202.327179,75.329041 204.672333,74.678581 207.138916,73.154892 
	C207.116486,71.103798 207.094055,69.052696 206.998444,66.993919 
	C206.998444,66.993919 206.988983,67.066895 207.851257,66.871918 
	C215.048737,66.363319 215.048737,66.363319 215.846420,58.992794 
	C216.057495,58.862030 216.106903,58.686005 216.910034,58.336720 
	C218.985168,58.243687 221.060287,58.150654 223.454956,58.043293 
	C223.454956,42.739170 223.522568,28.122332 223.320984,13.509205 
	C223.305588,12.392497 221.394592,10.353800 220.350540,10.344567 
	C208.564209,10.240341 196.775101,10.449271 184.270828,10.320723 
	C183.528915,10.411566 182.787003,10.502409 181.258606,10.291693 
	C179.578903,10.268339 177.899185,10.244985 175.426117,10.143629 
z"/>
<path fill="#5A6C51" opacity="1.000000" stroke="none" 
	d="
M134.677689,135.897781 
	C134.572632,130.676376 130.715744,131.902283 126.866699,132.009140 
	C125.609650,133.892944 124.705841,135.563614 124.696793,137.239090 
	C124.648911,146.098114 124.826233,154.958359 124.925476,163.818176 
	C123.561150,163.927322 122.196815,164.036469 120.412971,163.852661 
	C119.972038,163.388657 119.950615,163.217575 120.298286,162.965698 
	C123.115547,159.840668 122.307495,157.609787 118.666771,155.995560 
	C118.191772,155.971252 118.001526,155.966705 117.849915,155.520691 
	C118.007576,152.719543 118.126617,150.359848 118.624588,147.998505 
	C122.379433,148.035965 123.153946,146.736237 122.388290,143.296585 
	C121.427971,138.982346 121.136658,134.461349 121.057037,130.020615 
	C120.874771,119.855209 120.996574,109.684357 121.426674,99.433159 
	C126.435791,100.212273 126.136978,96.804871 126.729156,93.982391 
	C126.790878,93.634003 126.659164,93.311409 126.369339,92.685394 
	C126.142014,91.934860 126.072815,91.487755 126.405945,91.018463 
	C127.519669,89.606186 128.844254,88.211334 128.833557,86.826813 
	C128.792709,81.548996 128.321320,76.274513 128.392487,71.008614 
	C129.790558,72.305222 130.878387,73.543076 131.802292,74.893112 
	C132.655319,76.139580 133.332520,77.506355 134.087173,78.820145 
	C135.393051,77.608665 136.698929,76.397186 138.394226,75.099716 
	C139.846786,75.005486 140.909912,74.997261 142.325348,74.938705 
	C144.710571,73.450378 146.868896,72.156433 148.737564,70.529747 
	C150.290741,69.177681 151.845169,67.612076 152.777725,65.818085 
	C153.870605,63.715672 154.291077,61.263702 155.366852,58.898865 
	C161.803940,58.866577 157.875183,54.278858 159.145218,51.852055 
	C159.553757,51.402443 159.714493,51.078732 160.271027,50.683975 
	C162.597778,50.366859 164.528702,50.120785 167.049026,49.799606 
	C164.910049,42.608265 169.249847,41.421024 174.648621,41.901936 
	C174.904266,39.002106 175.101379,36.766327 175.345993,33.991577 
	C183.176514,33.991577 190.607376,33.991577 198.175827,34.388794 
	C198.675125,42.485664 199.036835,50.185314 199.422989,58.405621 
	C193.717072,57.709278 189.931107,58.323193 190.843002,64.541138 
	C190.929688,65.132156 189.193680,66.333481 188.121689,66.668434 
	C186.634033,67.133278 184.973862,67.046082 183.184433,67.214325 
	C183.267456,71.796059 183.348267,75.995338 177.117279,75.149864 
	C176.556061,75.073708 175.045364,77.433189 175.046356,78.660667 
	C175.048965,81.894173 173.855743,83.273178 170.608795,83.023796 
	C169.518021,82.940033 168.393570,83.294914 166.733643,83.525978 
	C168.252060,89.995361 165.135925,92.201477 159.327515,91.123344 
	C158.807800,94.064964 158.387527,96.443695 158.054016,98.331429 
	C155.168045,100.237823 149.897141,96.842522 150.320877,102.863251 
	C150.576691,106.498230 148.993820,107.421593 145.664810,107.394516 
	C144.512360,107.385147 142.416656,108.889374 142.345200,109.824051 
	C141.996765,114.382156 142.187561,118.981483 142.187561,123.999626 
	C145.488068,123.999626 147.966431,123.999626 150.444809,123.999626 
	C150.344238,124.443413 150.243683,124.887199 149.921997,125.857361 
	C149.859482,127.248764 150.018082,128.113800 150.176697,128.978836 
	C151.454422,130.010437 152.757492,131.939514 154.005066,131.904251 
	C157.653778,131.801132 158.579636,133.367050 158.326279,136.603455 
	C158.147842,138.882889 158.128662,141.200821 158.323166,143.477234 
	C158.607101,146.800156 157.115463,147.956512 153.328644,147.103561 
	C149.417603,146.119476 146.186111,145.563187 142.954636,145.006882 
	C142.794983,141.764893 141.978409,139.177780 137.450012,139.449615 
	C136.257294,137.972534 135.467484,136.935165 134.677689,135.897781 
M126.176170,107.497208 
	C126.862495,107.866821 127.548828,108.236443 128.235153,108.606064 
	C128.385162,108.040863 128.535187,107.475662 128.685211,106.910461 
	C127.901154,106.880852 127.117088,106.851234 126.176170,107.497208 
z"/>
<path fill="#C1C7B8" opacity="1.000000" stroke="none" 
	d="
M150.593414,124.040482 
	C147.966431,123.999626 145.488068,123.999626 142.187561,123.999626 
	C142.187561,118.981483 141.996765,114.382156 142.345200,109.824051 
	C142.416656,108.889374 144.512360,107.385147 145.664810,107.394516 
	C148.993820,107.421593 150.576691,106.498230 150.320877,102.863251 
	C149.897141,96.842522 155.168045,100.237823 158.054016,98.331429 
	C158.387527,96.443695 158.807800,94.064964 159.327515,91.123344 
	C165.135925,92.201477 168.252060,89.995361 166.733643,83.525978 
	C168.393570,83.294914 169.518021,82.940033 170.608795,83.023796 
	C173.855743,83.273178 175.048965,81.894173 175.046356,78.660667 
	C175.045364,77.433189 176.556061,75.073708 177.117279,75.149864 
	C183.348267,75.995338 183.267456,71.796059 183.184433,67.214325 
	C184.973862,67.046082 186.634033,67.133278 188.121689,66.668434 
	C189.193680,66.333481 190.929688,65.132156 190.843002,64.541138 
	C189.931107,58.323193 193.717072,57.709278 199.422989,58.405621 
	C199.036835,50.185314 198.675125,42.485664 198.517059,34.321602 
	C200.511566,31.438253 201.855667,27.638750 204.185349,26.884880 
	C209.189743,25.265476 209.208374,22.062363 209.375626,18.077454 
	C211.594894,17.987221 213.372452,17.987221 215.994614,17.987221 
	C215.994614,31.795952 215.994614,45.130333 215.994614,58.464718 
	C216.106903,58.686005 216.057495,58.862030 215.207825,58.950058 
	C207.435303,58.678642 207.438293,58.678753 207.183899,65.618080 
	C207.166138,66.102745 207.056107,66.584038 206.988983,67.066895 
	C206.988983,67.066895 206.998444,66.993919 206.581848,66.981384 
	C203.930817,66.968849 201.696396,66.968849 199.402786,66.968849 
	C199.402786,69.712097 199.402786,71.639977 199.402786,74.028130 
	C202.134918,74.028130 204.576218,74.028130 207.017502,74.028122 
	C204.672333,74.678581 202.327179,75.329041 199.260010,75.728729 
	C196.199661,75.282089 193.861328,75.086220 190.994431,74.846077 
	C190.994431,78.179642 190.994431,80.628143 190.994431,83.076637 
	C190.994431,83.076637 190.994064,82.994164 190.583282,83.034027 
	C182.968719,82.907661 182.969330,82.907654 183.034515,90.082176 
	C183.037506,90.410843 183.011932,90.739761 182.999664,91.068565 
	C182.999664,91.068565 182.998520,91.000015 182.581650,91.028595 
	C174.135117,90.997734 173.157669,92.280022 176.043579,99.087425 
	C175.821747,99.625526 175.599930,100.163635 174.851410,100.587570 
	C172.093597,100.190681 169.862503,99.907959 167.631393,99.625229 
	C167.791107,102.188110 167.950821,104.750999 168.110535,107.313881 
	C167.755447,107.862305 167.400375,108.410736 166.532501,108.714676 
	C159.345322,106.414192 158.632904,106.915672 158.852310,113.534401 
	C158.874283,114.197205 158.948654,114.858261 158.998718,115.520134 
	C159.091965,115.744301 159.030472,115.911774 158.191467,115.972061 
	C149.791534,115.607399 149.577103,115.857491 151.008652,123.572899 
	C151.060593,123.816368 150.971710,123.985840 150.593414,124.040482 
z"/>
<path fill="#D6DEAC" opacity="1.000000" stroke="none" 
	d="
M208.933899,18.167688 
	C209.208374,22.062363 209.189743,25.265476 204.185349,26.884880 
	C201.855667,27.638750 200.511566,31.438253 198.379471,33.924385 
	C190.607376,33.991577 183.176514,33.991577 175.345993,33.991577 
	C175.101379,36.766327 174.904266,39.002106 174.648621,41.901936 
	C169.249847,41.421024 164.910049,42.608265 167.049026,49.799606 
	C164.528702,50.120785 162.597778,50.366859 159.994415,50.775505 
	C159.180466,51.284702 159.038940,51.631329 158.897415,51.977955 
	C157.875183,54.278858 161.803940,58.866577 154.930939,58.827278 
	C151.027863,58.357662 150.398819,60.131020 150.705444,62.670803 
	C151.102646,65.960922 149.634094,67.207069 146.417068,66.921043 
	C145.176468,66.810730 143.895340,67.156029 142.458481,67.312744 
	C142.283554,70.078850 142.128296,72.533943 141.973022,74.989037 
	C140.909912,74.997261 139.846786,75.005486 137.994858,74.996796 
	C136.187531,74.161797 134.350250,73.400497 134.288910,72.516052 
	C133.985184,68.136177 134.150513,63.723770 134.150513,59.195312 
	C137.106186,58.881237 139.478378,58.629162 142.027649,58.358273 
	C142.027649,55.490189 142.027649,53.037983 142.027649,50.585777 
	C141.929230,50.370438 141.977127,50.194965 142.742279,50.079483 
	C150.553421,51.311749 150.546692,51.311596 150.717194,43.870510 
	C150.731949,43.226166 150.913834,42.585644 151.018082,41.943348 
	C151.018082,41.943348 151.008530,42.010456 151.426971,42.052177 
	C153.726761,42.093895 155.608093,42.093895 158.016296,42.093895 
	C158.016296,39.193340 158.016296,36.817402 158.016296,34.441467 
	C158.007721,34.190838 158.125015,34.034760 159.003693,33.982910 
	C166.219864,34.340397 166.194550,34.337269 166.998993,27.827642 
	C167.089661,27.094109 167.664719,26.420435 168.441162,25.831062 
	C175.429688,26.150307 175.738022,25.790325 174.442337,19.361774 
	C174.344711,18.877363 174.141876,18.414160 173.987961,17.941097 
	C173.987961,17.941095 173.952118,17.957355 174.306488,17.981796 
	C175.127838,17.993467 175.594803,17.980701 176.524826,17.922441 
	C187.687531,17.789618 198.387177,17.702288 209.032043,17.748558 
	C208.977264,17.882160 208.933899,18.167688 208.933899,18.167688 
z"/>
<path fill="#5E724D" opacity="1.000000" stroke="none" 
	d="
M141.560928,50.653805 
	C142.027649,53.037983 142.027649,55.490189 142.027649,58.358273 
	C139.478378,58.629162 137.106186,58.881237 134.150513,59.195312 
	C134.150513,63.723770 133.985184,68.136177 134.288910,72.516052 
	C134.350250,73.400497 136.187531,74.161797 137.605408,75.082794 
	C136.698929,76.397186 135.393051,77.608665 134.087173,78.820145 
	C133.332520,77.506355 132.655319,76.139580 131.802292,74.893112 
	C130.878387,73.543076 129.790558,72.305222 128.387100,70.568085 
	C128.232819,67.585312 128.793655,65.022095 128.559875,62.533535 
	C128.443268,61.292290 126.872856,60.187614 125.721603,58.997562 
	C125.483154,58.973957 125.011749,58.883766 124.905365,58.497452 
	C122.951874,57.741802 121.105659,57.056087 119.257523,57.050880 
	C94.053703,56.979843 68.848389,56.876156 43.646660,57.116508 
	C38.956867,57.161236 37.274048,55.740391 38.002232,51.261814 
	C40.306057,51.114159 42.609653,50.841934 44.913746,50.837620 
	C76.973862,50.777554 109.034042,50.754173 141.560928,50.653805 
z"/>
<path fill="#5F6F52" opacity="1.000000" stroke="none" 
	d="
M117.830818,165.032776 
	C117.788460,166.703323 117.746101,168.373886 117.176430,170.499222 
	C111.860771,170.937469 107.072433,170.920944 102.284088,170.904419 
	C102.224266,170.166153 102.164452,169.427872 102.410637,168.057770 
	C103.664970,162.903854 100.610657,163.034988 97.635757,163.035797 
	C80.056679,163.040512 62.477604,163.036346 44.915535,162.586014 
	C44.041130,157.089783 46.195599,155.381393 51.149509,155.964478 
	C54.380459,156.344757 57.696762,155.999878 61.443218,156.027893 
	C76.939720,156.207336 91.967834,156.338745 106.997101,156.859283 
	C107.441444,159.745468 105.556435,163.266953 109.988022,164.007019 
	C110.000610,163.999390 109.985207,164.024536 110.032288,164.380554 
	C111.963539,168.158386 113.971458,167.741425 116.351059,164.951431 
	C117.035645,164.990921 117.425766,165.008224 117.823868,165.037949 
	C117.831848,165.050369 117.830818,165.032776 117.830818,165.032776 
z"/>
<path fill="#596E4A" opacity="1.000000" stroke="none" 
	d="
M20.220881,131.344437 
	C20.283356,113.577896 20.345833,95.811363 20.808846,77.402039 
	C21.436178,75.840454 21.984713,74.865959 21.836859,74.012039 
	C20.964506,68.973755 23.264097,67.198029 28.010757,68.214569 
	C28.040329,87.478058 28.052729,106.241493 28.057697,125.004936 
	C28.059626,132.281998 27.838531,132.465210 20.345825,131.549561 
	C20.361265,131.459976 20.220881,131.344437 20.220881,131.344437 
z"/>
<path fill="#616F57" opacity="1.000000" stroke="none" 
	d="
M216.452332,58.400719 
	C215.994614,45.130333 215.994614,31.795952 215.994614,17.987221 
	C213.372452,17.987221 211.594894,17.987221 209.375626,18.077454 
	C208.933899,18.167688 208.977264,17.882160 208.995377,17.367222 
	C209.163528,13.751030 207.408463,12.928328 204.649826,12.973686 
	C199.382401,13.060292 194.104370,13.155049 188.849335,12.884918 
	C187.525696,12.816877 186.272369,11.381324 184.986740,10.574206 
	C196.775101,10.449271 208.564209,10.240341 220.350540,10.344567 
	C221.394592,10.353800 223.305588,12.392497 223.320984,13.509205 
	C223.522568,28.122332 223.454956,42.739170 223.454956,58.043293 
	C221.060287,58.150654 218.985168,58.243687 216.452332,58.400719 
z"/>
<path fill="#88927F" opacity="1.000000" stroke="none" 
	d="
M44.898521,163.035172 
	C62.477604,163.036346 80.056679,163.040512 97.635757,163.035797 
	C100.610657,163.034988 103.664970,162.903854 102.465912,167.689606 
	C100.672173,166.849716 99.142738,164.809525 97.584038,164.786926 
	C81.262390,164.550186 64.935921,164.669266 48.611164,164.600525 
	C45.979149,164.589447 44.467754,165.272217 44.665401,168.229431 
	C44.751099,169.511612 44.460991,170.818939 44.311016,172.446533 
	C39.047028,172.446533 33.995564,172.446533 28.991276,172.446533 
	C27.169481,164.648743 27.168438,164.719620 18.943443,164.598587 
	C16.739094,164.566147 14.543223,163.957504 12.822823,163.268738 
	C18.490530,162.947342 23.678875,162.970566 29.142052,163.099762 
	C29.925747,163.772278 30.434612,164.338806 30.777922,165.277374 
	C30.439035,167.294479 30.265705,168.939575 30.096376,170.546646 
	C42.319874,172.275589 43.057808,171.920654 43.037880,164.477768 
	C43.687172,163.801086 44.292847,163.418121 44.898521,163.035172 
z"/>
<path fill="#63774D" opacity="1.000000" stroke="none" 
	d="
M37.649380,51.313034 
	C37.274048,55.740391 38.956867,57.161236 43.646660,57.116508 
	C68.848389,56.876156 94.053703,56.979843 119.257523,57.050880 
	C121.105659,57.056087 122.951874,57.741802 124.436295,58.530506 
	C94.719933,58.970592 65.366264,58.991310 35.963886,58.957504 
	C35.915173,58.902977 35.820423,58.791592 35.820423,58.791592 
	C36.312458,56.315811 36.804493,53.840031 37.649380,51.313034 
z"/>
<path fill="#5A7246" opacity="1.000000" stroke="none" 
	d="
M28.867222,162.993805 
	C23.678875,162.970566 18.490530,162.947342 12.867102,162.891479 
	C12.347896,161.494720 12.263772,160.130615 12.442924,158.198944 
	C12.807030,157.114258 12.907861,156.597137 13.449739,156.066986 
	C18.684612,156.850525 21.044386,155.179825 20.083321,149.665680 
	C24.643686,147.055435 28.376148,147.642548 28.590078,150.734222 
	C28.871937,154.807632 28.791750,158.906113 28.867222,162.993805 
z"/>
<path fill="#5A694B" opacity="1.000000" stroke="none" 
	d="
M184.628784,10.447466 
	C186.272369,11.381324 187.525696,12.816877 188.849335,12.884918 
	C194.104370,13.155049 199.382401,13.060292 204.649826,12.973686 
	C207.408463,12.928328 209.163528,13.751030 209.050171,17.233620 
	C198.387177,17.702288 187.687531,17.789618 176.522400,17.677536 
	C176.056931,17.478127 176.069443,16.987988 176.230072,16.880322 
	C176.211563,16.513277 176.032440,16.253901 175.803986,15.660284 
	C175.787811,14.877768 175.820984,14.429490 176.231232,13.952686 
	C178.420563,12.813858 180.232819,11.703555 182.045090,10.593252 
	C182.787003,10.502409 183.528915,10.411566 184.628784,10.447466 
z"/>
<path fill="#88927F" opacity="1.000000" stroke="none" 
	d="
M13.008692,156.080002 
	C12.907861,156.597137 12.807030,157.114258 12.492122,157.789169 
	C11.579302,157.498291 10.824575,156.593597 10.190465,156.671448 
	C3.752046,157.461838 3.852426,153.379578 4.121360,148.920380 
	C4.301207,145.938339 4.124783,142.936203 4.155723,139.943558 
	C4.251125,130.715866 2.910529,131.648865 12.278420,131.561203 
	C14.603945,131.539444 16.928759,131.441971 19.737389,131.361862 
	C20.220881,131.344437 20.361265,131.459976 20.241714,131.899231 
	C20.080685,132.576294 20.039207,132.814102 19.668564,133.041687 
	C18.901592,133.050217 18.463789,133.068939 17.561691,133.064682 
	C14.936522,133.032791 12.753035,133.219086 10.619754,132.971970 
	C6.856895,132.536087 5.603292,134.029037 5.841071,137.748291 
	C6.126850,142.218384 6.083527,146.728531 5.863484,151.205627 
	C5.704062,154.449295 7.127045,155.367264 10.341734,154.987610 
	C11.110060,155.061798 11.549775,155.097458 12.111403,155.336792 
	C12.448821,155.782028 12.707280,155.961884 13.008692,156.080002 
z"/>
<path fill="#727D63" opacity="1.000000" stroke="none" 
	d="
M168.015137,25.719004 
	C167.664719,26.420435 167.089661,27.094109 166.998993,27.827642 
	C166.194550,34.337269 166.219864,34.340397 159.158981,34.009781 
	C158.917740,31.593201 159.156738,29.159431 159.457367,26.098103 
	C166.479187,27.915707 166.800232,23.053976 167.660522,18.738918 
	C168.011002,21.313040 168.013077,23.516022 168.015137,25.719004 
z"/>
<path fill="#697658" opacity="1.000000" stroke="none" 
	d="
M150.592453,42.064934 
	C150.913834,42.585644 150.731949,43.226166 150.717194,43.870510 
	C150.546692,51.311596 150.553421,51.311749 142.888077,50.055901 
	C142.925125,42.626904 142.925125,42.626904 150.592453,42.064934 
z"/>
<path fill="#88927F" opacity="1.000000" stroke="none" 
	d="
M125.299545,163.775543 
	C124.826233,154.958359 124.648911,146.098114 124.696793,137.239090 
	C124.705841,135.563614 125.609650,133.892944 126.407700,132.064209 
	C126.628410,140.785706 126.580475,149.663742 126.422562,158.539795 
	C126.391701,160.274719 125.934296,162.002075 125.299545,163.775543 
z"/>
<path fill="#6F7868" opacity="1.000000" stroke="none" 
	d="
M176.481323,99.045822 
	C173.157669,92.280022 174.135117,90.997734 182.615906,91.029800 
	C183.069473,91.653214 182.973160,92.322311 183.089951,92.951881 
	C184.036011,98.052040 181.696976,99.761566 176.481323,99.045822 
z"/>
<path fill="#6E7665" opacity="1.000000" stroke="none" 
	d="
M191.441238,83.066940 
	C190.994431,80.628143 190.994431,78.179642 190.994431,74.846077 
	C193.861328,75.086220 196.199661,75.282089 198.839233,75.772499 
	C198.849030,82.952133 198.849030,82.952133 191.441238,83.066940 
z"/>
<path fill="#687261" opacity="1.000000" stroke="none" 
	d="
M207.420120,66.969406 
	C207.056107,66.584038 207.166138,66.102745 207.183899,65.618080 
	C207.438293,58.678753 207.435303,58.678642 215.057159,58.954498 
	C215.048737,66.363319 215.048737,66.363319 207.420120,66.969406 
z"/>
<path fill="#687263" opacity="1.000000" stroke="none" 
	d="
M168.541473,107.272888 
	C167.950821,104.750999 167.791107,102.188110 167.631393,99.625229 
	C169.862503,99.907959 172.093597,100.190681 174.590637,100.729889 
	C175.628387,105.643272 174.082291,108.116394 168.541473,107.272888 
z"/>
<path fill="#697362" opacity="1.000000" stroke="none" 
	d="
M183.418182,91.084427 
	C183.011932,90.739761 183.037506,90.410843 183.034515,90.082176 
	C182.969330,82.907654 182.968719,82.907661 190.624496,83.032539 
	C191.224335,87.980789 190.087799,91.823677 183.418182,91.084427 
z"/>
<path fill="#667160" opacity="1.000000" stroke="none" 
	d="
M207.078217,73.591507 
	C204.576218,74.028130 202.134918,74.028130 199.402786,74.028130 
	C199.402786,71.639977 199.402786,69.712097 199.402786,66.968849 
	C201.696396,66.968849 203.930817,66.968849 206.618423,66.985229 
	C207.094055,69.052696 207.116486,71.103798 207.078217,73.591507 
z"/>
<path fill="#63774D" opacity="1.000000" stroke="none" 
	d="
M28.239227,66.462791 
	C28.371380,65.550827 28.503532,64.638855 28.999975,63.192059 
	C29.603973,61.513477 29.843681,60.369728 30.083389,59.225979 
	C31.722387,59.096973 33.361385,58.967964 35.410404,58.815273 
	C35.820423,58.791592 35.915173,58.902977 35.982014,59.404839 
	C36.100212,67.353020 36.100212,67.353020 28.293232,66.649277 
	C28.321529,66.582413 28.239227,66.462791 28.239227,66.462791 
z"/>
<path fill="#6E785D" opacity="1.000000" stroke="none" 
	d="
M168.441147,25.831062 
	C168.013077,23.516022 168.011002,21.313040 168.009674,18.695221 
	C169.716873,18.150557 171.423355,18.020733 173.558899,17.916002 
	C174.141876,18.414160 174.344711,18.877363 174.442337,19.361774 
	C175.738022,25.790325 175.429688,26.150307 168.441147,25.831062 
z"/>
<path fill="#657260" opacity="1.000000" stroke="none" 
	d="
M151.467133,123.555580 
	C149.577103,115.857491 149.791534,115.607399 158.044708,115.960411 
	C158.479523,116.329094 158.358444,116.671753 158.408966,116.986893 
	C159.234573,122.136574 157.193222,124.428528 151.467133,123.555580 
z"/>
<path fill="#66715F" opacity="1.000000" stroke="none" 
	d="
M159.448990,115.452621 
	C158.948654,114.858261 158.874283,114.197205 158.852310,113.534401 
	C158.632904,106.915672 159.345322,106.414192 166.284271,108.762001 
	C167.456284,114.445259 164.838608,116.134377 159.448990,115.452621 
z"/>
<path fill="#616C4C" opacity="1.000000" stroke="none" 
	d="
M157.596390,34.575363 
	C158.016296,36.817402 158.016296,39.193340 158.016296,42.093895 
	C155.608093,42.093895 153.726761,42.093895 151.393250,42.048958 
	C150.663589,35.240158 150.663589,35.240158 157.596390,34.575363 
z"/>
<path fill="#88927F" opacity="1.000000" stroke="none" 
	d="
M27.790318,66.430130 
	C28.239227,66.462791 28.321529,66.582413 28.205265,66.895340 
	C28.056208,67.377022 28.023413,67.545769 27.990620,67.714516 
	C23.264097,67.198029 20.964506,68.973755 21.836859,74.012039 
	C21.984713,74.865959 21.436178,75.840454 20.898813,76.953247 
	C20.415691,76.179955 20.124392,75.216934 20.089399,74.244690 
	C19.813383,66.575539 19.828438,66.574997 27.790318,66.430130 
z"/>
<path fill="#88927F" opacity="1.000000" stroke="none" 
	d="
M102.258873,171.300156 
	C107.072433,170.920944 111.860771,170.937469 117.076500,170.903229 
	C117.313759,171.400818 117.105858,172.433380 116.936096,172.427124 
	C112.032936,172.247116 107.133606,171.963120 102.258873,171.300156 
z"/>
<path fill="#737E6B" opacity="1.000000" stroke="none" 
	d="
M142.846390,145.412903 
	C146.186111,145.563187 149.417603,146.119476 152.876068,147.027969 
	C149.569489,147.381470 145.689850,149.680344 142.846390,145.412903 
z"/>
<path fill="#616F57" opacity="1.000000" stroke="none" 
	d="
M181.651855,10.442472 
	C180.232819,11.703555 178.420563,12.813858 176.186523,13.573214 
	C175.916336,12.222054 176.067902,11.221842 176.219482,10.221630 
	C177.899185,10.244985 179.578903,10.268339 181.651855,10.442472 
z"/>
<path fill="#C1C7B8" opacity="1.000000" stroke="none" 
	d="
M175.822800,10.182630 
	C176.067902,11.221842 175.916336,12.222054 175.809464,13.601739 
	C175.820984,14.429490 175.787811,14.877768 175.790619,15.923380 
	C175.907532,16.676472 175.988495,16.832230 176.069443,16.987988 
	C176.069443,16.987988 176.056931,17.478127 176.059357,17.723030 
	C175.594803,17.980701 175.127838,17.993467 174.313110,17.962828 
	C174.452286,15.327490 174.939194,12.735559 175.822800,10.182630 
z"/>
<path fill="#737E6B" opacity="1.000000" stroke="none" 
	d="
M134.510101,136.253220 
	C135.467484,136.935165 136.257294,137.972534 137.053101,139.344574 
	C134.081299,140.489105 134.208405,138.551971 134.510101,136.253220 
z"/>
<path fill="#88927F" opacity="1.000000" stroke="none" 
	d="
M29.757404,59.165077 
	C29.843681,60.369728 29.603973,61.513477 29.069767,62.852917 
	C28.993984,61.733795 29.212704,60.418987 29.757404,59.165077 
z"/>
<path fill="#C1C7B8" opacity="1.000000" stroke="none" 
	d="
M150.403137,128.795044 
	C150.018082,128.113800 149.859482,127.248764 149.930008,126.199829 
	C150.315964,126.881035 150.472778,127.746140 150.403137,128.795044 
z"/>
<path fill="#88927F" opacity="1.000000" stroke="none" 
	d="
M119.929199,163.046509 
	C119.950615,163.217575 119.972038,163.388657 120.001129,163.818207 
	C119.487724,164.372757 118.966629,164.668808 118.138176,164.998810 
	C117.830818,165.032776 117.831848,165.050369 117.889740,164.760986 
	C118.224442,163.997406 118.501266,163.523209 119.065887,163.058411 
	C119.545525,163.060730 119.737358,163.053619 119.929199,163.046509 
z"/>
<path fill="#DEE6A8" opacity="1.000000" stroke="none" 
	d="
M106.995949,156.470154 
	C91.967834,156.338745 76.939720,156.207336 61.425518,155.563446 
	C60.816235,150.351730 60.693039,145.652481 60.694923,140.631805 
	C60.783367,139.860321 60.746731,139.410263 60.801617,138.505463 
	C60.924965,133.380707 60.956791,128.710693 61.427589,124.024849 
	C64.073776,122.779564 68.455200,126.543175 68.850769,120.667053 
	C68.882652,119.890396 68.846672,119.444054 68.939972,118.610176 
	C70.829506,117.448273 72.576447,116.039711 74.352165,116.002441 
	C85.893867,115.760193 97.441826,115.815987 109.201340,116.008759 
	C109.618629,116.838867 109.822311,117.434425 109.968765,118.457230 
	C109.251183,122.920219 110.990013,124.515358 114.980034,123.986374 
	C115.913155,123.862663 116.895340,124.109055 117.946945,124.494186 
	C118.107841,132.535522 118.176750,140.267838 118.245651,148.000168 
	C118.126617,150.359848 118.007576,152.719543 117.409943,155.533859 
	C114.558899,156.145432 112.186462,156.302368 109.467239,156.363388 
	C108.412292,156.335022 107.704117,156.402588 106.995949,156.470154 
z"/>
<path fill="#5B6E48" opacity="1.000000" stroke="none" 
	d="
M118.624588,147.998505 
	C118.176750,140.267838 118.107841,132.535522 118.007996,124.011154 
	C117.977142,115.141670 117.977234,107.064217 118.351929,99.069527 
	C119.482658,99.273430 120.238785,99.394569 120.994904,99.515717 
	C120.996574,109.684357 120.874771,119.855209 121.057037,130.020615 
	C121.136658,134.461349 121.427971,138.982346 122.388290,143.296585 
	C123.153946,146.736237 122.379433,148.035965 118.624588,147.998505 
z"/>
<path fill="#63774D" opacity="1.000000" stroke="none" 
	d="
M125.960052,59.021164 
	C126.872856,60.187614 128.443268,61.292290 128.559875,62.533535 
	C128.793655,65.022095 128.232819,67.585312 128.005356,70.558243 
	C128.321320,76.274513 128.792709,81.548996 128.833557,86.826813 
	C128.844254,88.211334 127.519669,89.606186 126.387703,91.078873 
	C125.967125,91.161461 125.840355,91.159309 125.899979,90.680222 
	C125.959755,79.807816 125.959908,69.414490 125.960052,59.021164 
z"/>
<path fill="#8CA65A" opacity="1.000000" stroke="none" 
	d="
M109.814018,156.459320 
	C112.186462,156.302368 114.558899,156.145432 117.371315,155.975311 
	C118.001526,155.966705 118.191772,155.971252 118.667908,156.433563 
	C118.895233,158.943893 118.836655,160.996445 118.778076,163.049011 
	C118.501266,163.523209 118.224442,163.997406 117.881752,164.748566 
	C117.425766,165.008224 117.035645,164.990921 116.058914,164.700684 
	C113.643272,164.293350 111.814240,164.158951 109.985207,164.024536 
	C109.985207,164.024536 110.000610,163.999390 109.992538,163.576721 
	C109.927650,160.922470 109.870834,158.690887 109.814018,156.459320 
z"/>
<path fill="#5E724D" opacity="1.000000" stroke="none" 
	d="
M142.325348,74.938705 
	C142.128296,72.533943 142.283554,70.078850 142.458481,67.312744 
	C143.895340,67.156029 145.176468,66.810730 146.417068,66.921043 
	C149.634094,67.207069 151.102646,65.960922 150.705444,62.670803 
	C150.398819,60.131020 151.027863,58.357662 154.567291,58.891769 
	C154.291077,61.263702 153.870605,63.715672 152.777725,65.818085 
	C151.845169,67.612076 150.290741,69.177681 148.737564,70.529747 
	C146.868896,72.156433 144.710571,73.450378 142.325348,74.938705 
z"/>
<path fill="#E6F2DA" opacity="1.000000" stroke="none" 
	d="
M121.426674,99.433159 
	C120.238785,99.394569 119.482658,99.273430 118.357880,99.079453 
	C117.989227,99.006607 117.997375,99.024727 117.951309,98.675423 
	C117.823097,97.864723 117.740952,97.403320 117.783691,96.561218 
	C117.833405,95.119362 117.758232,94.058228 117.772171,92.681488 
	C117.879570,91.931381 117.897858,91.496880 118.360771,91.079086 
	C121.150383,91.116974 123.495369,91.138145 125.840355,91.159317 
	C125.840355,91.159309 125.967125,91.161461 125.985367,91.101051 
	C126.072815,91.487755 126.142014,91.934860 126.273453,92.941147 
	C126.402367,93.669617 126.469048,93.838905 126.535728,94.008186 
	C126.136978,96.804871 126.435791,100.212273 121.426674,99.433159 
z"/>
<path fill="#5B6E48" opacity="1.000000" stroke="none" 
	d="
M119.065880,163.058411 
	C118.836655,160.996445 118.895233,158.943893 118.952667,156.453323 
	C122.307495,157.609787 123.115547,159.840668 120.298286,162.965698 
	C119.737358,163.053619 119.545525,163.060730 119.065880,163.058411 
z"/>
<path fill="#5E724D" opacity="1.000000" stroke="none" 
	d="
M126.254601,107.159409 
	C127.117088,106.851234 127.901154,106.880852 128.685211,106.910461 
	C128.535187,107.475662 128.385162,108.040863 128.235153,108.606064 
	C127.548828,108.236443 126.862495,107.866821 126.254601,107.159409 
z"/>
<path fill="#63774D" opacity="1.000000" stroke="none" 
	d="
M126.729156,93.982391 
	C126.469048,93.838905 126.402367,93.669617 126.431564,93.244568 
	C126.659164,93.311409 126.790878,93.634003 126.729156,93.982391 
z"/>
<path fill="#7E8C62" opacity="1.000000" stroke="none" 
	d="
M159.145218,51.852055 
	C159.038940,51.631329 159.180466,51.284702 159.598602,50.846550 
	C159.714493,51.078732 159.553757,51.402443 159.145218,51.852055 
z"/>
<path fill="#8BB04D" opacity="1.000000" stroke="none" 
	d="
M125.899979,90.680229 
	C123.495369,91.138145 121.150383,91.116974 117.899979,91.089043 
	C103.698570,91.076233 90.402580,91.070175 76.670906,91.077789 
	C73.823479,91.386147 71.411728,91.680840 68.646759,91.977692 
	C67.190109,91.637459 66.086685,91.295074 65.081642,90.561523 
	C70.316978,89.580620 75.450996,88.525375 80.591469,88.492950 
	C93.371887,88.412292 106.155220,88.800064 118.937454,88.994789 
	C122.158913,89.043861 123.970665,87.536751 123.985466,84.227249 
	C124.014473,77.739883 124.156143,71.244766 123.856140,64.771164 
	C123.796364,63.481304 122.124489,61.398182 120.928589,61.185684 
	C116.718048,60.437492 112.392677,60.074955 108.108017,60.049606 
	C89.644089,59.940361 71.178513,59.920292 52.715050,60.063160 
	C48.305145,60.097282 43.901062,60.883404 39.032143,61.369827 
	C39.799194,68.064499 35.908039,69.791145 30.783449,69.044502 
	C30.489120,73.346359 30.051582,76.912468 30.034369,80.480598 
	C29.958124,96.283226 29.920301,112.087219 30.068176,127.888847 
	C30.100348,131.326691 28.784321,132.955490 25.635040,134.044266 
	C24.175486,134.548889 23.171350,136.399261 21.988771,137.665695 
	C21.293396,138.410370 20.652996,139.206390 20.000942,139.546143 
	C20.008589,137.092621 20.003160,135.072250 19.997730,133.051895 
	C20.039207,132.814102 20.080685,132.576294 20.226273,131.988815 
	C27.838531,132.465210 28.059626,132.281998 28.057697,125.004936 
	C28.052729,106.241493 28.040329,87.478058 28.010757,68.214569 
	C28.023413,67.545769 28.056208,67.377022 28.176968,66.962204 
	C36.100212,67.353020 36.100212,67.353020 36.030727,59.459366 
	C65.366264,58.991310 94.719933,58.970592 124.542679,58.916817 
	C125.011749,58.883766 125.483154,58.973957 125.721603,58.997559 
	C125.959908,69.414490 125.959755,79.807816 125.899979,90.680229 
z"/>
<path fill="#88B934" opacity="1.000000" stroke="none" 
	d="
M19.987869,139.979309 
	C20.652996,139.206390 21.293396,138.410370 21.988771,137.665695 
	C23.171350,136.399261 24.175486,134.548889 25.635040,134.044266 
	C28.784321,132.955490 30.100348,131.326691 30.068176,127.888847 
	C29.920301,112.087219 29.958124,96.283226 30.034369,80.480598 
	C30.051582,76.912468 30.489120,73.346359 30.783449,69.044502 
	C35.908039,69.791145 39.799194,68.064499 39.032143,61.369827 
	C43.901062,60.883404 48.305145,60.097282 52.715050,60.063160 
	C71.178513,59.920292 89.644089,59.940361 108.108017,60.049606 
	C112.392677,60.074955 116.718048,60.437492 120.928589,61.185684 
	C122.124489,61.398182 123.796364,63.481304 123.856140,64.771164 
	C124.156143,71.244766 124.014473,77.739883 123.985466,84.227249 
	C123.970665,87.536751 122.158913,89.043861 118.937454,88.994789 
	C106.155220,88.800064 93.371887,88.412292 80.591469,88.492950 
	C75.450996,88.525375 70.316978,89.580620 64.710159,90.586739 
	C63.120083,91.342171 61.999882,91.681213 60.527092,92.094223 
	C58.951210,94.907616 56.442936,98.878609 59.833233,100.232178 
	C63.741356,101.792496 66.477959,103.957962 69.132164,107.211159 
	C69.871284,107.616188 70.421692,107.794128 71.037872,108.321091 
	C72.799126,110.663841 74.161247,110.749886 75.321365,107.952118 
	C76.104469,107.611275 76.591370,107.303154 77.443527,106.945862 
	C78.543419,105.914688 79.194946,104.853668 80.034111,103.971039 
	C81.045563,102.907219 82.197609,101.171570 83.321068,101.146027 
	C93.102501,100.923622 102.894936,100.895859 112.672447,101.193260 
	C113.766701,101.226547 115.917877,104.477951 115.665695,104.817978 
	C113.608154,107.592163 114.760536,109.847260 115.782677,112.548866 
	C116.497726,114.438797 116.225311,116.865196 115.796898,118.927994 
	C115.664268,119.566566 113.538666,120.183113 112.385803,120.086983 
	C111.547852,120.017105 110.809021,118.758545 110.026001,118.029976 
	C109.822311,117.434425 109.618629,116.838867 109.191605,115.637451 
	C108.203865,114.385681 107.430252,113.167679 106.676445,113.179810 
	C95.605820,113.357948 84.535751,113.644646 73.471359,114.060204 
	C71.732040,114.125519 69.914589,114.751762 68.376167,115.573448 
	C68.014526,115.766602 68.639565,117.807083 68.810684,118.997704 
	C68.846672,119.444054 68.882652,119.890396 68.461372,120.729004 
	C63.664783,121.750755 59.325462,122.380241 54.663177,123.012512 
	C53.909855,123.020180 53.479492,123.025078 52.694347,123.058243 
	C50.102413,124.560440 48.134636,127.065689 44.809845,124.757996 
	C44.096989,124.273148 43.549854,124.040199 42.945793,123.453499 
	C40.459057,120.090851 38.341953,119.299400 36.764374,124.122360 
	C36.368004,124.868607 36.196960,125.424149 35.720245,126.134811 
	C33.942497,127.808098 32.903446,129.252411 36.283047,130.119720 
	C36.975792,130.562027 37.430054,130.868393 37.974628,131.501297 
	C40.343914,133.581100 42.622883,135.334366 44.911522,137.410095 
	C44.947113,138.161880 44.973038,138.591202 45.085236,139.414810 
	C50.304283,140.190475 55.437065,140.571854 60.569847,140.953232 
	C60.693039,145.652481 60.816235,150.351730 60.957130,155.515411 
	C57.696762,155.999878 54.380459,156.344757 51.149509,155.964478 
	C46.195599,155.381393 44.041130,157.089783 44.915535,162.586014 
	C44.292847,163.418121 43.687172,163.801086 42.578972,164.523682 
	C38.365456,164.877304 34.654469,164.891327 30.943478,164.905350 
	C30.434612,164.338806 29.925747,163.772278 29.142052,163.099762 
	C28.791750,158.906113 28.871937,154.807632 28.590078,150.734222 
	C28.376148,147.642548 24.643686,147.055435 19.808271,149.888855 
	C18.575666,154.910461 15.130189,153.952393 12.114531,153.614410 
	C12.096153,152.494827 12.124926,151.746994 12.480389,150.928741 
	C12.587460,149.571732 12.367840,148.285126 12.118040,146.667786 
	C12.092370,145.894501 12.096881,145.451920 12.452950,144.961121 
	C15.196431,143.271149 17.588352,141.629395 19.986830,139.991608 
	C19.993385,139.995560 19.987869,139.979309 19.987869,139.979309 
M50.313648,83.013069 
	C46.374111,82.413284 44.447769,83.648369 44.865894,88.073746 
	C45.266628,92.315018 48.239029,90.882080 50.416786,90.915352 
	C51.236355,90.927864 52.832130,89.677025 52.769722,89.159386 
	C52.521133,87.097412 51.758408,85.097412 50.313648,83.013069 
z"/>
<path fill="#5D793F" opacity="1.000000" stroke="none" 
	d="
M109.467239,156.363388 
	C109.870834,158.690887 109.927650,160.922470 109.979950,163.584335 
	C105.556435,163.266953 107.441444,159.745468 106.997101,156.859283 
	C107.704117,156.402588 108.412292,156.335022 109.467239,156.363388 
z"/>
<path fill="#5D793F" opacity="1.000000" stroke="none" 
	d="
M110.032288,164.380554 
	C111.814240,164.158951 113.643272,164.293350 115.764450,164.678497 
	C113.971458,167.741425 111.963539,168.158386 110.032288,164.380554 
z"/>
<path fill="#5A6A4D" opacity="1.000000" stroke="none" 
	d="
M30.777924,165.277374 
	C34.654469,164.891327 38.365456,164.877304 42.535355,164.817383 
	C43.057808,171.920654 42.319874,172.275589 30.096376,170.546646 
	C30.265705,168.939575 30.439035,167.294479 30.777924,165.277374 
z"/>
<path fill="#8BB04D" opacity="1.000000" stroke="none" 
	d="
M12.161679,153.986160 
	C15.130189,153.952393 18.575666,154.910461 19.709183,150.265717 
	C21.044386,155.179825 18.684612,156.850525 13.449741,156.066986 
	C12.707280,155.961884 12.448821,155.782028 12.141178,155.047333 
	C12.086586,154.364883 12.124132,154.175522 12.161679,153.986160 
z"/>
<path fill="#616F57" opacity="1.000000" stroke="none" 
	d="
M176.230072,16.880322 
	C175.988495,16.832230 175.907532,16.676472 175.839935,16.257618 
	C176.032440,16.253901 176.211563,16.513277 176.230072,16.880322 
z"/>
<path fill="#5A6A50" opacity="1.000000" stroke="none" 
	d="
M10.013124,154.949066 
	C7.127045,155.367264 5.704062,154.449295 5.863484,151.205627 
	C6.083527,146.728531 6.126850,142.218384 5.841071,137.748291 
	C5.603292,134.029037 6.856895,132.536087 10.619754,132.971970 
	C12.753035,133.219086 14.936522,133.032791 17.552452,133.452438 
	C16.720451,135.229370 15.537191,137.619736 14.126168,137.762741 
	C10.430795,138.137253 9.885990,140.062332 9.977424,143.080261 
	C10.097187,147.033264 10.010823,150.992508 10.013124,154.949066 
z"/>
<path fill="#59763C" opacity="1.000000" stroke="none" 
	d="
M10.341734,154.987610 
	C10.010823,150.992508 10.097187,147.033264 9.977424,143.080261 
	C9.885990,140.062332 10.430795,138.137253 14.126168,137.762741 
	C15.537191,137.619736 16.720451,135.229370 18.016747,133.475418 
	C18.463789,133.068939 18.901592,133.050217 19.668564,133.041687 
	C20.003160,135.072250 20.008589,137.092621 20.000942,139.546143 
	C19.987869,139.979309 19.993385,139.995560 19.550247,139.998047 
	C17.645203,140.004929 16.175726,139.915405 14.722906,140.032532 
	C11.306821,140.307907 9.857931,141.709518 12.101392,145.009354 
	C12.096881,145.451920 12.092370,145.894501 12.070945,147.066406 
	C12.087253,148.863556 12.120475,149.931351 12.153697,150.999146 
	C12.124926,151.746994 12.096153,152.494827 12.114531,153.614410 
	C12.124132,154.175522 12.086586,154.364883 12.019264,154.843689 
	C11.549775,155.097458 11.110060,155.061798 10.341734,154.987610 
z"/>
<path fill="#8BB04D" opacity="1.000000" stroke="none" 
	d="
M109.968765,118.457230 
	C110.809021,118.758545 111.547852,120.017105 112.385803,120.086983 
	C113.538666,120.183113 115.664268,119.566566 115.796898,118.927994 
	C116.225311,116.865196 116.497726,114.438797 115.782677,112.548866 
	C114.760536,109.847260 113.608154,107.592163 115.665695,104.817978 
	C115.917877,104.477951 113.766701,101.226547 112.672447,101.193260 
	C102.894936,100.895859 93.102501,100.923622 83.321068,101.146027 
	C82.197609,101.171570 81.045563,102.907219 80.034111,103.971039 
	C79.194946,104.853668 78.543419,105.914688 77.429825,106.525406 
	C76.402725,104.137253 75.754578,102.120392 75.061195,99.940384 
	C75.015961,99.777237 75.037041,99.439301 75.358894,99.312561 
	C76.137260,99.136665 76.593765,99.087502 77.515427,99.019119 
	C91.319511,99.008179 104.658440,99.016457 117.997375,99.024727 
	C117.997375,99.024727 117.989227,99.006607 117.983276,98.996689 
	C117.977234,107.064217 117.977142,115.141670 117.916000,123.702148 
	C116.895340,124.109055 115.913155,123.862663 114.980034,123.986374 
	C110.990013,124.515358 109.251183,122.920219 109.968765,118.457230 
z"/>
<path fill="#596F43" opacity="1.000000" stroke="none" 
	d="
M44.998966,139.020538 
	C44.973038,138.591202 44.947113,138.161880 44.951183,137.029282 
	C45.321922,134.884430 45.662670,133.442856 46.402653,132.002991 
	C47.866558,132.005035 48.931221,132.005325 50.168213,132.239929 
	C51.210922,131.966187 52.081306,131.458160 52.960289,130.525650 
	C52.981747,128.401871 52.994614,126.702583 53.348991,124.997711 
	C54.467258,124.639503 55.244019,124.286865 56.349228,123.938431 
	C57.115658,123.941910 57.553631,123.941177 58.127522,124.171257 
	C58.840179,124.296120 59.416924,124.190170 60.242859,124.083694 
	C60.492050,124.083160 60.988617,124.040665 60.988617,124.040665 
	C60.956791,128.710693 60.924965,133.380707 60.358772,138.517181 
	C54.882591,138.995941 49.940781,139.008240 44.998966,139.020538 
z"/>
<path fill="#8BB04D" opacity="1.000000" stroke="none" 
	d="
M68.939972,118.610176 
	C68.639565,117.807083 68.014526,115.766602 68.376167,115.573448 
	C69.914589,114.751762 71.732040,114.125519 73.471359,114.060204 
	C84.535751,113.644646 95.605820,113.357948 106.676445,113.179810 
	C107.430252,113.167679 108.203865,114.385681 108.977997,115.402893 
	C97.441826,115.815987 85.893867,115.760193 74.352165,116.002441 
	C72.576447,116.039711 70.829506,117.448273 68.939972,118.610176 
z"/>
<path fill="#6E8E3F" opacity="1.000000" stroke="none" 
	d="
M45.085236,139.414810 
	C49.940781,139.008240 54.882591,138.995941 60.267250,138.971924 
	C60.746731,139.410263 60.783367,139.860321 60.694923,140.631805 
	C55.437065,140.571854 50.304283,140.190475 45.085236,139.414810 
z"/>
<path fill="#8BB04D" opacity="1.000000" stroke="none" 
	d="
M61.427589,124.024849 
	C60.988617,124.040665 60.492050,124.083160 60.114620,123.845413 
	C59.155331,123.718582 58.573467,123.829514 57.991608,123.940445 
	C57.553631,123.941177 57.115658,123.941910 56.227921,123.733681 
	C55.563610,123.277023 55.299603,123.105354 54.986137,123.009720 
	C59.325462,122.380241 63.664783,121.750755 68.393494,121.059311 
	C68.455200,126.543175 64.073776,122.779564 61.427589,124.024849 
z"/>
<path fill="#587141" opacity="1.000000" stroke="none" 
	d="
M117.951309,98.675423 
	C104.658440,99.016457 91.319511,99.008179 77.572800,98.574974 
	C77.145538,95.788071 77.126060,93.426102 77.106583,91.064125 
	C90.402580,91.070175 103.698570,91.076233 117.455353,91.072327 
	C117.897858,91.496880 117.879570,91.931381 117.463577,92.710648 
	C114.285118,94.805298 114.540985,96.091927 117.658806,96.941925 
	C117.740952,97.403320 117.823097,97.864723 117.951309,98.675423 
z"/>
<path fill="#8BB04D" opacity="1.000000" stroke="none" 
	d="
M117.783691,96.561218 
	C114.540985,96.091927 114.285118,94.805298 117.374466,93.026245 
	C117.758232,94.058228 117.833405,95.119362 117.783691,96.561218 
z"/>
<path fill="#E3F0DB" opacity="1.000000" stroke="none" 
	d="
M76.670906,91.077789 
	C77.126060,93.426102 77.145538,95.788071 77.107651,98.594193 
	C76.593765,99.087502 76.137260,99.136665 74.947174,99.254486 
	C73.124237,99.402542 72.034882,99.481949 70.636108,99.418060 
	C69.885742,99.164368 69.444771,99.053963 68.998390,98.966057 
	C68.992973,98.988564 69.039818,98.991264 69.026917,98.639099 
	C67.660706,96.186134 66.753914,94.084351 68.999977,91.975540 
	C71.411728,91.680840 73.823479,91.386147 76.670906,91.077789 
z"/>
<path fill="#577639" opacity="1.000000" stroke="none" 
	d="
M68.646759,91.977692 
	C66.753914,94.084351 67.660706,96.186134 68.574997,98.635117 
	C61.130695,99.167480 61.130695,99.167480 60.879681,92.020264 
	C61.999882,91.681213 63.120083,91.342171 64.611771,90.977905 
	C66.086685,91.295074 67.190109,91.637459 68.646759,91.977692 
z"/>
<path fill="#59773A" opacity="1.000000" stroke="none" 
	d="
M50.749847,83.043770 
	C51.758408,85.097412 52.521133,87.097412 52.769722,89.159386 
	C52.832130,89.677025 51.236355,90.927864 50.416786,90.915352 
	C48.239029,90.882080 45.266628,92.315018 44.865894,88.073746 
	C44.447769,83.648369 46.374111,82.413284 50.749847,83.043770 
z"/>
<path fill="#557431" opacity="1.000000" stroke="none" 
	d="
M37.884315,131.174774 
	C37.430054,130.868393 36.975792,130.562027 36.296341,129.720108 
	C36.056068,128.116272 36.040989,127.047981 36.025909,125.979683 
	C36.196960,125.424149 36.368004,124.868607 37.194401,124.140335 
	C39.567406,123.914154 41.285061,123.860710 43.002716,123.807266 
	C43.549854,124.040199 44.096989,124.273148 44.791801,125.183067 
	C44.907776,127.562683 44.876072,129.265320 44.418041,130.980408 
	C41.955914,131.053497 39.920116,131.114136 37.884315,131.174774 
z"/>
<path fill="#86AF43" opacity="1.000000" stroke="none" 
	d="
M44.844368,130.967957 
	C44.876072,129.265320 44.907776,127.562683 44.957520,125.434982 
	C48.134636,127.065689 50.102413,124.560440 52.676727,123.386536 
	C53.011757,124.125465 53.009617,124.564377 53.007481,125.003288 
	C52.994614,126.702583 52.981747,128.401871 52.628983,130.547089 
	C51.524681,131.330566 50.760284,131.668106 49.995888,132.005646 
	C48.931221,132.005325 47.866558,132.005035 46.273422,131.768570 
	C45.444756,131.344254 45.144562,131.156113 44.844368,130.967957 
z"/>
<path fill="#8BB04D" opacity="1.000000" stroke="none" 
	d="
M60.527092,92.094231 
	C61.130695,99.167480 61.130695,99.167480 68.587891,98.987289 
	C69.039818,98.991264 68.992973,98.988564 69.010422,99.414688 
	C68.999733,102.221901 68.971588,104.602989 68.943451,106.984077 
	C66.477959,103.957962 63.741356,101.792496 59.833233,100.232178 
	C56.442936,98.878609 58.951210,94.907616 60.527092,92.094231 
z"/>
<path fill="#5D7A3B" opacity="1.000000" stroke="none" 
	d="
M69.132164,107.211159 
	C68.971588,104.602989 68.999733,102.221901 69.015839,99.392181 
	C69.444771,99.053963 69.885742,99.164368 70.648788,99.791283 
	C70.980133,100.803352 70.833267,101.373314 71.027443,101.780746 
	C71.652390,103.092079 72.403137,104.343460 73.105377,105.617950 
	C73.740623,104.274239 74.415497,102.947083 74.987892,101.577110 
	C75.168495,101.144867 75.074669,100.597954 75.106430,100.103523 
	C75.754578,102.120392 76.402725,104.137253 77.064575,106.574585 
	C76.591370,107.303154 76.104469,107.611275 74.916061,107.934204 
	C73.133743,107.956696 72.052925,107.964386 70.972099,107.972069 
	C70.421692,107.794128 69.871284,107.616188 69.132164,107.211159 
z"/>
<path fill="#6E8E3F" opacity="1.000000" stroke="none" 
	d="
M44.418045,130.980408 
	C45.144562,131.156113 45.444756,131.344254 45.874184,131.766846 
	C45.662670,133.442856 45.321922,134.884430 44.941517,136.706833 
	C42.622883,135.334366 40.343914,133.581100 37.974628,131.501282 
	C39.920116,131.114136 41.955914,131.053497 44.418045,130.980408 
z"/>
<path fill="#8BB04D" opacity="1.000000" stroke="none" 
	d="
M12.452950,144.961121 
	C9.857931,141.709518 11.306821,140.307907 14.722906,140.032532 
	C16.175726,139.915405 17.645203,140.004929 19.543694,139.994095 
	C17.588352,141.629395 15.196431,143.271149 12.452950,144.961121 
z"/>
<path fill="#86AF43" opacity="1.000000" stroke="none" 
	d="
M42.945793,123.453506 
	C41.285061,123.860710 39.567406,123.914154 37.419724,123.949623 
	C38.341953,119.299400 40.459057,120.090851 42.945793,123.453506 
z"/>
<path fill="#8BB04D" opacity="1.000000" stroke="none" 
	d="
M12.480389,150.928741 
	C12.120475,149.931351 12.087253,148.863556 12.101124,147.397125 
	C12.367840,148.285126 12.587460,149.571732 12.480389,150.928741 
z"/>
<path fill="#8BB04D" opacity="1.000000" stroke="none" 
	d="
M71.037872,108.321091 
	C72.052925,107.964386 73.133743,107.956696 74.619865,107.966934 
	C74.161247,110.749886 72.799126,110.663841 71.037872,108.321091 
z"/>
<path fill="#86AF43" opacity="1.000000" stroke="none" 
	d="
M35.720242,126.134811 
	C36.040989,127.047981 36.056068,128.116272 36.057854,129.584198 
	C32.903446,129.252411 33.942497,127.808098 35.720242,126.134811 
z"/>
<path fill="#6E8E3F" opacity="1.000000" stroke="none" 
	d="
M53.348991,124.997711 
	C53.009617,124.564377 53.011757,124.125465 53.031513,123.358261 
	C53.479492,123.025078 53.909855,123.020180 54.663177,123.012505 
	C55.299603,123.105354 55.563610,123.277023 55.899471,123.729477 
	C55.244019,124.286865 54.467258,124.639503 53.348991,124.997711 
z"/>
<path fill="#60764D" opacity="1.000000" stroke="none" 
	d="
M75.061203,99.940384 
	C75.074669,100.597954 75.168495,101.144867 74.987892,101.577110 
	C74.415497,102.947083 73.740623,104.274239 73.105377,105.617950 
	C72.403137,104.343460 71.652390,103.092079 71.027443,101.780746 
	C70.833267,101.373314 70.980133,100.803352 70.958191,99.934570 
	C72.034882,99.481949 73.124237,99.402542 74.625320,99.381218 
	C75.037041,99.439301 75.015961,99.777237 75.061203,99.940384 
z"/>
<path fill="#6E8E3F" opacity="1.000000" stroke="none" 
	d="
M50.168213,132.239929 
	C50.760284,131.668106 51.524681,131.330566 52.620384,130.971588 
	C52.081306,131.458160 51.210922,131.966187 50.168213,132.239929 
z"/>
<path fill="#6E8E3F" opacity="1.000000" stroke="none" 
	d="
M58.127522,124.171257 
	C58.573467,123.829514 59.155331,123.718582 59.865425,123.845947 
	C59.416924,124.190170 58.840179,124.296120 58.127522,124.171257 
z"/>
</svg>